<?xml version="1.0" encoding="UTF-8"?>
<!-- Created with Grafika (https://www.grafika.cc/) -->
<svg xmlns="http://www.w3.org/2000/svg" xmlns:svg="http://www.w3.org/2000/svg" xmlns:xlink="http://www.w3.org/1999/xlink" width="1455.71" height="1455.71" viewBox="0 0 1455.71 1455.71" preserveAspectRatio="xMidYMid meet">
	<defs>
		<clipPath id="mask_1">
			<rect x="212.19" y="116.76" width="1031.34" height="1222.18" />
		</clipPath>
		<mask id="mask_2" mask-type="luminance">
			<g id="mask_12">
				<path d="M-306.81,-296.97 L1741.19,-296.97 L1741.19,1751.03 L-306.81,1751.03 L-306.81,-296.97 L-306.81,-296.97 Z" fill-rule="evenodd" style="fill:#FFFFFF;" />
			</g>
		</mask>
	</defs>
	<rect transform="matrix(1.0000001192092896, -0.0000000004707056966424261, 0.0000000004707056966424261, 1.0000001192092896, 727.8551025390625, 727.8551025390625)" x="-727.86" y="-727.86" width="1455.71" height="1455.71" rx="500" ry="500" style="fill:#008CFF;" />
	<g id="logo-transparent (8).svg2" clip-path="url(#mask_1)">
		<g id="Grupo22">
			<g id="Grupo2">
				<g mask="url(#mask_2)">
					<g id="Grupo 12">
						<path d="M711.19,1337.78 C694.13,1334.47 682.23,1329.53 636.87,1306.92 C424.72,1201.16 290.2,1067.96 238.23,912.23 C219.17,855.12 212.52,813.74 212.33,751.03 C212.17,701.12 211.7,701.87 229.15,723.83 C273.05,779.06 337.37,824.98 434.19,870.19 C533.56,916.59 690.56,947.67 778.19,938.28 C852.97,930.27 909.2,901.65 931.1,860.44 C937.71,848.01 937.02,847.87 913.03,856.85 C894.12,863.94 882.25,867.35 849.19,875.23 C830.65,879.65 777.62,878.61 757.64,873.43 C727.07,865.51 702.96,850.81 673.03,821.81 C653.14,802.55 650.94,801.5 625.35,799.01 C452.94,782.26 264.21,662.41 222.25,543.03 C212.03,513.93 212.19,516.11 212.19,410.03 C212.19,306.38 212.02,308.89 220.41,289.77 C230.62,266.49 254.07,251.58 300.19,239.04 C303.49,238.15 319.69,233.19 336.19,228.02 C352.69,222.85 368.89,217.91 372.19,217.05 C375.49,216.18 388.99,212.12 402.19,208.02 C415.39,203.91 427.99,200.14 430.19,199.63 C432.39,199.12 435.99,197.98 438.19,197.09 C440.39,196.21 446.24,194.38 451.19,193.03 C456.14,191.68 462.44,189.84 465.19,188.96 C467.94,188.07 478.29,184.94 488.19,182 C498.09,179.07 508.44,175.95 511.19,175.08 C513.94,174.21 519.79,172.51 524.19,171.29 C528.59,170.08 542.09,165.98 554.19,162.19 C579.56,154.23 595.65,149.35 604.19,147.03 C607.49,146.13 624.14,141.19 641.19,136.03 C658.24,130.88 674.89,125.93 678.19,125.02 C681.49,124.12 689.59,121.89 696.19,120.07 C703.66,118.01 715.75,116.76 728.19,116.76 C740.63,116.76 752.72,118.01 760.19,120.07 C766.79,121.89 774.89,124.12 778.19,125.02 C781.49,125.92 791.84,129.07 801.19,132.01 C825.88,139.78 843.35,145.13 850.19,147.02 C855.79,148.56 901.66,162.32 931.19,171.32 C938.34,173.5 948.24,176.48 953.19,177.94 C958.14,179.41 971.64,183.48 983.19,186.98 C994.74,190.49 1006.89,194.1 1010.19,195.01 C1013.49,195.92 1023.84,199.07 1033.19,202.01 C1060.4,210.58 1075.1,215.05 1092.19,219.97 C1140.34,233.81 1191.39,250.16 1199.95,254.46 C1269.08,289.21 1253.67,404.21 1169.98,478.1 C1161.3,485.76 1153.74,492.54 1153.19,493.16 C1147.59,499.49 1109.97,524.42 1083.19,539.57 C1038.47,564.86 975.33,589.31 922.19,601.93 C881.61,611.56 873.03,614.12 860.19,620.46 C846.04,627.45 833.49,636.13 812.92,653.15 C731.39,720.63 648.9,729.9 524.19,685.61 C476.76,668.76 460.84,659.34 453.75,643.89 C430.95,594.23 431.63,525.01 455.15,500.74 C471.78,483.57 485.16,483.32 525.19,499.41 C575.92,519.8 619.83,530.97 637.55,527.97 C648.84,526.07 648.45,524.72 632.65,510.89 C596.44,479.2 585.65,456.52 596.21,434.27 C604.83,416.12 615.58,417.3 650.22,440.23 C710.17,479.91 753.3,493.78 817.19,493.92 C847.31,493.99 858,493 894.19,486.76 C1000.2,468.49 1102.75,416.79 1131.68,367.03 C1143.13,347.34 1140.95,341.64 1119.36,334.85 C1103.02,329.7 1048.31,313.29 1040.19,311.1 C1036.89,310.21 1023.39,306.13 1010.19,302.03 C980.33,292.77 961.97,287.2 954.19,285.03 C950.89,284.11 936.04,279.65 921.19,275.11 C906.34,270.57 886.99,264.67 878.19,262.01 C869.39,259.35 851.39,253.89 838.19,249.88 C824.99,245.87 811.49,241.89 808.19,241.04 C804.89,240.19 800.84,239.03 799.19,238.46 C796.02,237.36 753.18,224.3 741.01,220.72 C733.32,218.45 718.58,219.28 707.19,222.61 C703.34,223.74 692.54,227.08 683.19,230.03 C666.81,235.21 662.41,236.52 647.19,240.76 C643.34,241.83 633.89,244.65 626.19,247.03 C618.49,249.41 604.99,253.45 596.19,256.01 C587.39,258.56 567.14,264.71 551.19,269.68 C522.41,278.63 511.73,281.83 500.19,284.97 C496.89,285.87 477.54,291.73 457.19,298.01 C436.84,304.28 417.49,310.15 414.19,311.06 C410.89,311.96 401.89,314.64 394.19,317 C386.49,319.37 373.89,323.1 366.19,325.3 C339.01,333.06 322.58,338.97 318.91,342.29 C315.36,345.5 315.19,351.32 315.19,468.11 C315.19,590.56 315.19,590.56 333.98,608.52 C387.24,659.44 455.6,698.92 532.19,723 C561.08,732.08 578.23,736.29 605.19,740.9 C640.38,746.93 689.78,746.95 707.99,740.94 C711.18,739.89 715.75,739.03 718.16,739.03 C731.77,739.03 776.5,719.06 802.74,701.26 C836.08,678.64 841.91,676.85 852.68,685.92 C874.46,704.23 861.81,739.51 822.17,771.05 C807.12,783.02 805.81,786.91 816.69,787.3 C847.54,788.41 876.92,781.19 930.79,759.26 C992.71,734.06 1017.66,753.56 1017.71,827.19 C1017.79,927.71 953.6,1004.48 850.19,1027.54 C842.49,1029.26 831.24,1031.69 825.19,1032.94 C807.96,1036.5 732.09,1037.85 700.19,1035.15 C591.63,1025.99 488.14,996.8 393.48,948.65 C354.49,928.82 356.31,928.34 371.69,954.36 C426.79,1047.59 524.44,1131.34 661.19,1202.65 C729.07,1238.03 722.51,1237.34 770.36,1214.15 C1012.78,1096.6 1133.8,944.42 1140.25,749.03 C1141.79,702.11 1143.43,704.04 1113.98,718.06 C1077.63,735.37 1059.46,742.89 1040.52,748.5 C1037.93,749.27 1033.24,746.09 1024.52,737.66 C1010.69,724.27 1005.53,720.74 994.69,717.18 C982.96,713.34 985.61,710.52 1007.69,703.32 C1018.97,699.64 1030.89,695.48 1034.19,694.07 C1037.49,692.66 1043.34,690.34 1047.19,688.92 C1109.96,665.78 1187.9,614.1 1223.61,571.95 C1231.49,562.65 1239.18,555.03 1240.71,555.03 C1244.41,555.03 1243.23,795.91 1239.41,818.03 C1229.83,873.69 1219.33,910.48 1200.6,954.03 C1144.04,1085.59 1009.99,1210.52 825.19,1303.92 C767.55,1333.03 735.62,1342.52 711.19,1337.78 L711.19,1337.78 Z" style="fill:#FFFFFF;" />
					</g>
				</g>
			</g>
		</g>
	</g>
</svg>