<?xml version="1.0" encoding="UTF-8"?>
<!-- Created with Grafika (https://www.grafika.cc/) -->
<svg xmlns="http://www.w3.org/2000/svg" xmlns:svg="http://www.w3.org/2000/svg" xmlns:xlink="http://www.w3.org/1999/xlink" width="1964.82" height="530.54" viewBox="0 0 1964.82 530.54" preserveAspectRatio="xMidYMid meet">
	<defs>
		<mask id="mask_1" mask-type="alpha">
			<path d="M-619.9,-537.75 L2380.1,-537.75 L2380.1,1098.25 L-619.9,1098.25 L-619.9,-537.75 Z" fill-rule="evenodd" style="fill:white;" />
		</mask>
	</defs>
	<g id="Grupo2">
		<g mask="url(#mask_1)">
			<path d="M186.73,515.66 C69.05,456.61 7.15,380.69 2.03,289.16 C0.05,253.75 -0.29,253.93 24.39,277.66 C103.97,354.18 277.48,382.94 320.2,326.69 C326.92,317.84 327.14,316.91 321.99,319.03 C301.59,327.44 293.26,329.2 273.29,329.31 C246.28,329.47 230.75,324.43 210.8,309.04 C198.69,299.69 192.08,296.95 175.45,294.37 C98.95,282.49 17.18,227.57 3.78,179.07 C-1.87,158.62 -0.97,83.78 5.06,72.41 C12.1,59.14 14.88,58.03 121.31,26.31 C240.08,-9.09 224.04,-9.27 351.29,28.83 C461.19,61.73 461.15,61.71 461.15,92.72 C461.15,142.69 407.54,186.61 317.06,210.76 C297.91,215.87 284.96,221.42 273.65,229.37 C228.07,261.42 199.11,265.3 143.07,246.91 C111.91,236.68 105.47,229.16 104.26,201.62 C102.38,159.02 109.41,153.89 150.23,168.02 C164.65,173.01 180.67,177.1 185.84,177.1 L195.23,177.1 L184.94,165.7 C172.61,152.05 169.7,144.2 173.98,136.19 C178.37,128 181.11,128.52 203.16,141.73 C240.82,164.27 280.6,167.97 331.72,153.66 C371.52,142.53 420.29,111.63 416.41,100.01 C414.45,94.11 248.3,42.3 231.47,42.35 C226.22,42.36 193.49,51.77 67.84,89.39 L48.07,95.31 L48.07,150.28 L48.07,205.24 L57.59,214.18 C115.71,268.75 201.36,286.34 260.88,255.92 C273.99,249.21 286.18,244.64 287.98,245.74 C295.19,250.2 291.51,266.5 280.98,276.71 C262.66,294.46 271.24,296.07 312.21,282.56 C353.3,269.02 361.54,273.16 361.54,307.34 C361.54,401.94 231.91,430.06 92.28,365.76 C66.26,353.77 65.21,354.26 77.72,372.45 C101.38,406.86 145.42,442.38 198.9,470.19 C232.89,487.86 232.36,487.85 263.5,471.56 C344.11,429.4 391.56,380.8 410.09,321.45 C416.6,300.62 419.39,254.67 414.01,257 C369.09,276.41 371.58,275.98 360.47,266.21 C350.36,257.32 349.01,258.83 378.36,246.27 C406.66,234.16 430.01,219.71 447.85,203.26 L460.74,191.38 L462.56,204.01 C466.47,231.09 459.38,320.83 451.56,343.31 C430.17,404.84 387.6,451.84 313.05,496.25 C244.77,536.92 232.77,538.77 186.73,515.66 ZM599.71,471.68 C529.4,449.71 522.32,357.62 588.25,322.79 C617.46,307.36 673.7,317.56 694.39,342.04 C748.75,406.35 682.2,497.46 599.71,471.68 ZM654.54,437.11 C696.88,408.29 676.07,343.91 625.59,347.56 C561.12,352.22 565.18,443.7 629.86,443.7 C640.59,443.7 647.61,441.82 654.54,437.11 ZM747.31,473.85 C739.91,471.95 740.82,322.36 748.26,317.66 C762.14,308.89 778.23,321.76 828.91,382.17 L852.27,410.01 L854.12,370.46 C855.14,348.7 856.12,327.94 856.31,324.31 C856.63,318.32 858.12,317.72 872.77,317.72 L888.89,317.72 L888.89,395.36 L888.89,472.99 L874.36,472.99 C857.47,472.99 859.58,474.84 814.9,420.99 C798.52,401.25 784.08,385.1 782.8,385.1 C781.53,385.1 780.49,404.26 780.49,427.68 C780.49,459.17 779.54,470.55 776.83,471.39 C769.2,473.78 752.45,475.17 747.31,473.85 ZM927,410.74 C927.01,376.5 927.86,341.56 928.87,333.1 L930.72,317.72 L946.42,317.72 L962.13,317.72 L962.13,380.71 L962.13,443.7 L1001.68,443.7 L1041.23,443.7 L1041.23,458.35 L1041.23,472.99 L984.1,472.99 L926.97,472.99 L927,410.74 ZM1064.67,395.36 L1064.67,317.72 L1080.47,317.72 C1100.87,317.72 1099.82,313.28 1099.82,399.99 L1099.82,472.99 L1082.25,472.99 L1064.67,472.99 L1064.67,395.36 ZM1137.91,395.36 L1137.91,317.72 L1152.16,317.72 C1168.59,317.72 1172.97,321.65 1216.36,375.41 C1247.13,413.54 1246.31,413.2 1246.33,387.47 C1246.34,375.7 1247.19,355.18 1248.23,341.89 L1250.11,317.72 L1265.79,317.72 L1281.47,317.72 L1281.47,395.36 L1281.47,472.99 L1267.19,472.99 C1250.83,472.99 1250.29,472.5 1204.51,416.52 C1190.39,399.24 1177.53,385.1 1175.95,385.1 C1174.19,385.1 1173.07,402.2 1173.07,429.05 L1173.07,472.99 L1155.49,472.99 L1137.91,472.99 L1137.91,395.36 ZM1319.55,439.77 C1319.55,421.49 1320.42,386.56 1321.47,362.13 L1323.4,317.72 L1381.53,317.72 L1439.67,317.72 L1439.67,332.37 L1439.67,347.02 L1398.65,347.02 L1357.64,347.02 L1357.64,363.13 L1357.64,379.24 L1392.87,379.24 C1428,379.24 1428.1,379.26 1430.96,386.77 C1438.29,406.06 1434.08,408.54 1393.94,408.54 L1357.64,408.54 L1357.64,426.04 L1357.64,443.54 L1400.85,444.35 L1444.06,445.16 L1444.96,459.08 L1445.85,472.99 L1382.7,472.99 L1319.55,472.99 L1319.55,439.77 ZM573.46,237.34 C542.89,230.38 537.82,224.3 546.58,205.07 C550.53,196.41 553.59,195.94 565.96,202.11 C593.34,215.77 631.62,212.9 633.45,197.05 C634.63,186.85 626.92,181.82 600.98,175.85 C548.29,163.74 526.91,131.38 552.41,102.34 C567.78,84.83 575.75,82.11 612.03,82 C658.16,81.86 668.2,87.52 658.36,108.15 C652.68,120.06 653.32,119.89 636.93,114.11 C612,105.31 583.72,110.32 581.78,123.86 C580.25,134.49 585.43,137.83 616.67,146.4 C652.08,156.11 663.47,163.14 668.49,178.34 C682.71,221.49 634.72,251.28 573.46,237.34 ZM909.16,238.67 C844.75,227.37 819.96,149.8 866.04,103.72 C893.18,76.58 951.64,72.61 982.99,95.79 C993.4,103.49 993.47,105.8 983.55,116.14 C974.05,126.07 971.49,126.23 957.23,117.82 C922.65,97.42 880.1,120.78 880.1,160.16 C880.1,190.9 898.32,207.86 931.34,207.86 C957.65,207.86 957.39,208.11 958.74,181.29 L959.84,159.52 L975.63,159.52 L991.43,159.52 L991.43,190.32 C991.43,221.13 991.43,221.13 981.9,226.98 C964.59,237.62 932.53,242.77 909.16,238.67 ZM1070.97,237.43 C1033.45,227.94 1028.34,216.72 1027.1,141.21 L1026.14,83.35 L1043.61,83.35 L1061.09,83.35 L1062.28,135.35 C1063.85,203.81 1066.44,209.32 1096.97,209.32 C1125.36,209.32 1132.05,193.92 1132.05,128.6 C1132.05,82.68 1131.76,83.35 1151.63,83.35 L1167.66,83.35 L1166.7,139.74 C1165.66,200.95 1164.14,207.44 1147.18,223.16 C1130.45,238.67 1099.08,244.54 1070.97,237.43 ZM700.41,236.67 C699.34,235.59 698.46,200.66 698.46,159.03 L698.46,83.35 L758.52,83.35 L818.57,83.35 L818.57,96.45 L818.57,109.55 L776.83,110.37 L735.08,111.18 L734.19,126.56 C733.71,135.02 733.71,142.12 734.19,142.34 C734.68,142.56 750.76,143.54 769.93,144.53 C807.98,146.5 812.41,148.66 808.7,163.46 C806.92,170.53 805.46,171.24 792.59,171.24 C784.81,171.24 768.36,172.09 756.03,173.13 L733.61,175.03 L733.61,192.17 L733.61,209.32 L777.56,209.32 L821.5,209.32 L821.5,222.14 C821.5,234.15 820.93,235.07 812.35,236.79 C800.07,239.24 702.88,239.14 700.41,236.67 ZM1204.32,236.67 C1203.24,235.59 1202.36,200.57 1202.36,158.84 L1202.36,82.97 L1253.13,83.89 C1302.9,84.79 1304.13,84.97 1316.06,92.87 C1345.75,112.54 1348.62,149.86 1322.63,178.06 L1310.89,190.79 L1325.48,211.49 C1343.75,237.44 1343.72,238.63 1324.68,238.57 C1305.72,238.52 1305.54,238.4 1288.18,215.12 C1274.04,196.14 1274.04,196.14 1257.25,195.26 L1240.45,194.38 L1240.45,214.67 C1240.45,234.96 1240.45,234.96 1231.29,236.79 C1219.34,239.18 1206.77,239.12 1204.32,236.67 ZM1295.12,156.14 C1304.22,147.6 1304.7,127.74 1296,119.87 C1284.08,109.07 1242.5,110.37 1238.92,121.65 C1235.52,132.34 1240.41,161.95 1245.85,163.59 C1257.77,167.19 1288.27,162.58 1295.12,156.14 ZM1448.46,236.01 C1443.16,232.37 1440.85,169.02 1444.08,116.3 L1446.11,83.35 L1490.7,83.35 C1543.46,83.35 1560.09,87.15 1578,103.29 C1616.22,137.75 1606.33,204.78 1559.53,228.49 C1543.58,236.58 1457.74,242.38 1448.46,236.01 ZM1538.48,202.41 C1589.88,175.83 1565.26,112.64 1503.5,112.64 L1480.68,112.64 L1480.68,159.03 C1480.68,184.54 1481.67,206.44 1482.88,207.7 C1486.47,211.42 1528.85,207.39 1538.48,202.41 ZM1609.59,236.84 C1609.59,234.83 1647.82,148.1 1666,108.86 L1677.93,83.11 L1698.23,83.96 L1718.52,84.81 L1741.76,136.08 C1754.54,164.28 1769.58,197.3 1775.18,209.45 C1788.69,238.76 1788.73,238.62 1767.76,238.62 C1750.15,238.62 1750.15,238.62 1742.25,222.51 L1734.35,206.39 L1697.23,206.39 C1660.11,206.39 1660.11,206.39 1656.42,215.3 C1648.57,234.24 1642.76,238.62 1625.49,238.62 C1616.75,238.62 1609.59,237.82 1609.59,236.84 ZM1720.92,175.65 C1720.92,172.58 1699.72,121.43 1698.45,121.43 C1693.89,121.43 1673.75,172.18 1677.39,174.49 C1681.54,177.12 1720.92,178.17 1720.92,175.65 ZM1808.08,237 C1806.87,235.74 1805.88,200.66 1805.88,159.03 L1805.88,83.35 L1853.78,83.35 C1882.41,83.35 1905.69,84.71 1911.64,86.74 C1975.59,108.54 1983.87,199.46 1924.55,228.48 C1907.73,236.72 1814.35,243.55 1808.08,237 ZM1906.59,200.76 C1924.54,189.66 1932.66,165.67 1925.59,144.57 C1917.83,121.39 1901.91,112.64 1867.5,112.64 L1843.97,112.64 L1843.97,159.03 C1843.97,184.54 1844.95,206.44 1846.16,207.7 C1850.79,212.5 1895.99,207.31 1906.59,200.76 ZM1371.13,231.06 C1368.79,224.93 1368.88,138.22 1371.27,107.52 L1373.15,83.35 L1388.37,83.35 L1403.59,83.35 L1405.51,129.49 C1406.56,154.87 1407.43,189.14 1407.43,205.66 L1407.44,235.69 L1390.18,235.69 C1377.14,235.69 1372.48,234.56 1371.13,231.06 Z" style="fill:#00203B;" />
		</g>
	</g>
	<path d="M604.89,240.29 C598.25,240.37 591.93,240.33 590.85,240.21 C589.77,240.08 586.25,239.58 583.04,239.1 C579.83,238.61 573.75,237.37 569.53,236.33 C565.32,235.3 559.77,233.68 557.2,232.75 C554.63,231.81 551.46,230.42 550.15,229.65 C548.85,228.89 546.87,227.25 545.76,226.02 C544.64,224.78 543.44,222.7 543.09,221.39 C542.72,220.04 542.61,217.92 542.83,216.47 C543.03,215.08 543.96,211.86 544.87,209.33 C545.79,206.8 547.28,203.55 548.2,202.11 C549.29,200.39 550.58,199.19 551.96,198.61 C553.71,197.87 554.48,197.84 556.58,198.39 C557.97,198.76 562.27,200.45 566.13,202.15 C569.99,203.84 573.73,205.47 574.44,205.76 C575.15,206.05 578.56,207.03 582.02,207.92 C585.49,208.82 591.34,209.87 595.02,210.25 C598.71,210.63 604.4,210.8 607.66,210.63 C610.93,210.46 615.31,209.92 617.41,209.42 C619.51,208.92 622.56,207.92 624.18,207.2 C625.81,206.48 628.11,205.04 629.3,203.99 C630.49,202.95 631.93,201.08 632.49,199.84 C633.05,198.6 633.52,196.7 633.52,195.62 C633.53,194.54 633.26,192.69 632.94,191.51 C632.61,190.34 631.41,188.44 630.26,187.3 C629.12,186.16 626.67,184.44 624.82,183.47 C622.97,182.5 619.56,181.06 617.25,180.28 C614.93,179.49 607.85,177.53 601.52,175.94 C595.19,174.34 587.62,172.17 584.71,171.11 C581.79,170.06 577,168.06 574.06,166.66 C571.12,165.27 566.18,162.44 563.08,160.38 C559.98,158.32 555.64,154.85 553.44,152.68 C551.24,150.5 548.55,147.33 547.48,145.63 C546.4,143.93 544.84,140.84 544.02,138.76 C543.19,136.68 542.3,133.27 542.04,131.18 C541.78,129.09 541.78,125.68 542.03,123.6 C542.29,121.52 543.17,118.11 543.99,116.02 C544.82,113.92 546.9,110.06 548.62,107.44 C550.43,104.66 554.12,100.31 557.41,97.05 C560.54,93.96 564.52,90.58 566.28,89.54 C568.04,88.51 570.96,87.06 572.78,86.32 C574.6,85.59 577.85,84.62 579.99,84.16 C582.14,83.71 587.27,83.05 591.39,82.68 C596.31,82.25 605.46,82.12 618.04,82.32 C631.7,82.53 638.83,82.88 642.91,83.53 C646.06,84.03 650.11,84.95 651.9,85.57 C653.69,86.18 656.1,87.31 657.26,88.08 C658.41,88.84 659.86,90.46 660.49,91.69 C661.14,92.97 661.62,95.01 661.62,96.5 C661.62,97.93 660.99,100.98 660.22,103.28 C659.44,105.59 657.94,109.2 656.88,111.31 C655.81,113.42 654.13,115.83 653.13,116.67 C651.63,117.94 650.98,118.14 649.31,117.84 C648.2,117.64 643.51,116.25 638.87,114.74 C634.24,113.24 628.17,111.55 625.39,111 C621.76,110.27 617.81,109.99 611.35,110.01 C604.01,110.02 601.52,110.25 597.76,111.23 C595.23,111.9 592.07,112.99 590.74,113.65 C589.41,114.32 587.5,115.48 586.51,116.23 C585.51,116.97 584.04,118.71 583.24,120.07 C582.11,122 581.77,123.37 581.73,126.09 C581.7,128.35 582.01,130.26 582.59,131.38 C583.09,132.35 584.31,133.82 585.29,134.64 C586.27,135.47 588.24,136.73 589.66,137.45 C591.09,138.17 594.15,139.43 596.46,140.27 C598.78,141.1 606.87,143.54 614.44,145.7 C622.01,147.85 630.6,150.4 633.54,151.37 C636.47,152.33 641.35,154.2 644.39,155.51 C647.42,156.83 651.61,158.92 653.69,160.16 C655.78,161.4 659.14,164.17 661.17,166.31 C663.42,168.7 665.52,171.64 666.58,173.88 C667.53,175.9 668.86,179.65 669.54,182.23 C670.42,185.62 670.77,188.63 670.79,193.1 C670.81,197.35 670.52,200.32 669.85,202.64 C669.32,204.5 668.47,207.03 667.95,208.26 C667.44,209.5 665.9,212.27 664.54,214.41 C663.17,216.56 660.51,219.87 658.61,221.76 C656.71,223.64 653.21,226.5 650.83,228.1 C648.45,229.7 644.24,232.01 641.48,233.22 C638.71,234.44 634.34,236.08 631.76,236.86 C629.19,237.64 624.8,238.7 622.02,239.21 C618.54,239.86 613.21,240.19 604.89,240.29 Z" style="fill:#008CFF;" />
	<path d="M773.06,238.5 C760.66,238.66 740.03,238.56 727.22,238.27 C714.42,237.98 703.05,237.5 701.97,237.21 C700.3,236.76 699.94,236.17 699.56,233.23 C699.31,231.33 698.91,196.76 698.67,156.41 L698.23,83.03 L758.38,83.22 L818.52,83.41 L818.72,96.43 L818.92,109.44 L802.09,109.91 C792.83,110.17 774.06,110.6 760.37,110.87 L735.49,111.35 L735.07,114.38 C734.85,116.05 734.44,122.96 734.16,129.74 L733.67,142.06 L736.92,142.47 C738.7,142.7 749.81,143.4 761.6,144.03 C773.39,144.66 786.2,145.51 790.06,145.93 C793.92,146.35 798.91,147.2 801.15,147.83 C803.38,148.45 806.11,149.81 807.21,150.85 C808.31,151.89 809.42,153.68 809.67,154.84 C809.92,155.99 809.73,158.86 809.25,161.2 C808.77,163.55 807.93,166.34 807.38,167.4 C806.84,168.46 805.46,169.68 804.32,170.1 C803.19,170.53 793.77,171.25 783.41,171.69 C773.04,172.14 758.4,173.02 750.88,173.64 C743.36,174.26 736.46,174.93 735.54,175.13 C733.88,175.48 733.88,175.48 733.88,192.46 L733.88,209.45 L777.94,209.45 L822.01,209.45 L821.72,220.36 C821.53,227.39 821.08,231.87 820.47,232.99 C819.94,233.94 818.37,235.19 816.98,235.77 C815.58,236.35 810.2,237.14 805.02,237.51 C799.84,237.89 785.46,238.33 773.06,238.5 Z" style="fill:#008CFF;" />
	<path d="M933.78,239.86 C928.17,240.15 919.76,239.96 915.08,239.46 C910.4,238.95 902.23,237.09 896.92,235.33 C891.61,233.57 884.53,230.48 881.19,228.46 C877.86,226.43 872.13,222.09 868.46,218.81 C864.79,215.53 859.55,209.65 856.81,205.75 C854.08,201.85 850.43,195.28 848.71,191.15 C846.99,187.01 844.89,180.36 844.05,176.35 C843.21,172.35 842.52,164.86 842.53,159.71 C842.54,154.56 843.2,147.28 844,143.53 C844.79,139.78 846.77,133.55 848.39,129.69 C850.01,125.83 853.13,119.97 855.32,116.67 C857.51,113.37 862.52,107.43 866.46,103.46 C871.49,98.38 876.04,94.99 881.78,92.04 C886.26,89.73 893.61,86.69 898.11,85.28 C902.61,83.87 910.14,82.15 914.85,81.46 C920.1,80.69 928.16,80.43 935.73,80.79 C943.02,81.13 951.39,82.23 956.21,83.47 C960.7,84.63 968.07,87.4 972.58,89.61 C977.1,91.83 982.92,95.52 985.53,97.81 C988.13,100.11 990.55,102.89 990.9,104 C991.29,105.21 990.72,107.33 989.49,109.32 C988.36,111.13 985.23,114.77 982.53,117.4 C979.83,120.03 976.4,122.65 974.89,123.21 C973.16,123.86 970.96,123.89 968.88,123.3 C967.08,122.78 961.43,120.27 956.32,117.72 C951.14,115.12 943.82,112.41 939.76,111.58 C934.2,110.44 930.68,110.31 924.88,111.05 C920.69,111.58 914.64,113 911.43,114.2 C908.22,115.4 902.78,118.52 899.34,121.13 C895.9,123.74 891.23,128.61 888.94,131.99 C886.65,135.35 883.96,140.63 882.95,143.71 C881.94,146.8 880.86,152.57 880.55,156.55 C880.23,160.52 880.51,166.94 881.17,170.82 C881.82,174.7 883.69,180.63 885.32,183.99 C886.95,187.36 890.15,191.99 892.42,194.28 C894.69,196.57 898.78,199.66 901.51,201.15 C904.23,202.63 909.4,204.63 912.98,205.6 C917.66,206.86 923.54,207.37 933.78,207.39 C943.38,207.4 949.12,206.97 951.3,206.06 C953.47,205.15 955.03,203.48 956.03,200.98 C956.85,198.93 957.81,192.2 958.17,186.03 C958.53,179.86 959.08,171.26 959.41,166.91 L959.99,159.01 L975.75,159.01 L991.51,159.01 L991.2,188.33 C990.93,213.31 990.63,218.1 989.19,220.7 C988.26,222.38 984.94,225.31 981.81,227.19 C978.68,229.08 972.22,231.97 967.45,233.61 C962.68,235.26 955.44,237.22 951.37,237.98 C947.31,238.73 939.39,239.58 933.78,239.86 Z" style="fill:#008CFF;" />
	<path d="M1094.92,240.02 C1084.39,239.96 1076.56,239.1 1069.41,237.21 C1063.74,235.71 1055.79,232.83 1051.76,230.82 C1047.72,228.8 1042.82,225.27 1040.88,222.97 C1038.93,220.66 1036.22,216.27 1034.85,213.2 C1033.49,210.13 1031.4,202.08 1030.21,195.31 C1028.87,187.68 1027.8,171.01 1027.39,151.37 C1027.03,133.96 1026.46,111.52 1026.12,101.5 L1025.51,83.27 L1043.12,83.27 L1060.74,83.27 L1061.63,99.99 C1062.13,109.19 1062.55,124.51 1062.57,134.04 C1062.6,143.57 1063.2,159.36 1063.91,169.13 C1064.63,178.9 1066.19,189.84 1067.38,193.43 C1068.58,197.03 1071.11,201.53 1073,203.42 C1074.91,205.33 1078.88,207.28 1081.88,207.79 C1084.86,208.29 1091.66,208.7 1096.98,208.7 C1104.36,208.7 1108.2,207.94 1113.14,205.49 C1116.71,203.72 1120.97,200.23 1122.62,197.74 C1124.27,195.25 1126.68,188.75 1127.96,183.29 C1129.73,175.8 1130.53,163.48 1131.25,132.79 C1131.89,105.5 1132.75,91.21 1133.86,89.15 C1134.77,87.46 1136.69,85.45 1138.14,84.67 C1139.59,83.9 1146.96,83.27 1154.53,83.27 L1168.29,83.27 L1167.71,95.3 C1167.4,101.93 1166.83,124.37 1166.45,145.18 C1166.08,165.98 1165.1,187.03 1164.28,191.94 C1163.46,196.86 1161.69,203.36 1160.34,206.39 C1158.98,209.42 1155.02,215.06 1151.53,218.93 C1147.7,223.16 1141.42,227.93 1135.71,230.92 C1130.51,233.66 1122.62,236.84 1118.18,238 C1113.16,239.31 1104.37,240.07 1094.92,240.02 Z" style="fill:#008CFF;" />
	<path d="M1213.71,238.73 C1209.93,238.73 1206.37,237.91 1205.25,236.79 C1203.7,235.25 1203.12,225.97 1202.4,191.17 C1201.9,167.14 1201.48,133.03 1201.48,115.37 L1201.48,83.27 L1230.72,83.33 C1246.8,83.37 1269.55,83.9 1281.28,84.52 C1299.12,85.46 1303.69,86.16 1309.25,88.79 C1312.91,90.52 1319.24,94.98 1323.32,98.71 C1328.14,103.12 1332.32,108.7 1335.24,114.65 C1339.38,123.06 1339.75,124.86 1339.72,136.9 C1339.7,149.16 1339.38,150.64 1334.65,160.31 C1331.54,166.68 1326.07,174.48 1320.38,180.7 L1311.15,190.77 L1315.69,197.21 C1318.19,200.75 1324.15,209.37 1328.94,216.37 C1333.72,223.37 1338.04,230.71 1338.53,232.69 C1339.13,235.06 1338.79,236.68 1337.53,237.48 C1336.48,238.14 1330.49,238.69 1324.23,238.71 C1317.52,238.72 1310.93,237.93 1308.22,236.8 C1305.09,235.49 1299.25,229.44 1290.04,217.94 C1282.57,208.62 1274.61,199.96 1272.34,198.68 C1269.74,197.22 1263.29,196.01 1254.98,195.42 L1241.75,194.47 L1240.75,213.78 C1240.14,225.59 1239.14,233.6 1238.16,234.41 C1237.28,235.13 1232.89,236.4 1228.4,237.22 C1223.91,238.05 1217.3,238.73 1213.71,238.73 ZM1256.51,164.4 C1261.43,164.41 1269.48,163.78 1274.4,162.99 C1279.32,162.21 1286.13,160.21 1289.53,158.53 C1294.1,156.29 1296.56,153.87 1298.91,149.3 C1301.43,144.39 1301.98,141.47 1301.57,135.18 C1301.23,130 1300.08,125.95 1298.24,123.49 C1296.7,121.42 1293.61,118.66 1291.38,117.35 C1289.15,116.04 1282.59,114.27 1276.81,113.41 C1268.89,112.23 1264.04,112.24 1257.06,113.46 C1251.98,114.34 1246.07,115.97 1243.93,117.08 C1241.79,118.18 1239.64,120.7 1239.15,122.67 C1238.65,124.64 1238.58,131.95 1239,138.9 C1239.41,145.85 1240.76,153.96 1242,156.91 C1243.23,159.86 1244.99,162.75 1245.91,163.34 C1246.82,163.92 1251.6,164.4 1256.51,164.4 Z" style="fill:#008CFF;" />
	<path d="M1397.66,236.36 C1391.98,236.21 1384.39,235.83 1380.8,235.51 C1375.95,235.07 1373.64,233.96 1371.82,231.18 C1369.63,227.83 1369.46,220.44 1370.29,162 C1370.79,126.01 1371.63,93.64 1372.16,90.06 L1373.11,83.55 L1388.16,83.55 L1403.21,83.55 L1404.04,90.06 C1404.49,93.64 1405.57,119.3 1406.44,147.08 C1407.3,174.86 1408,206.38 1408,217.11 L1407.99,236.63 L1397.66,236.36 Z" style="fill:#008CFF;" />
	<path d="M1478.41,238.04 C1464.51,238 1451.7,237.38 1449.92,236.66 C1447.94,235.86 1446.29,233.38 1445.66,230.25 C1445.09,227.45 1443.94,212.4 1443.11,196.83 C1442.09,177.77 1442.11,156.24 1443.18,131.01 C1444.05,110.38 1445.13,91.27 1445.58,88.53 L1446.4,83.55 L1486.51,83.56 C1514.1,83.56 1530.87,84.25 1540.21,85.77 C1547.84,87.01 1557.5,89.79 1562.25,92.11 C1566.89,94.38 1574.65,100.2 1579.49,105.04 C1585.09,110.64 1590.3,117.93 1593.83,125.1 C1597.71,133 1599.8,139.86 1600.82,148.06 C1601.77,155.65 1601.74,163.09 1600.75,169.24 C1599.91,174.45 1597.94,182.09 1596.37,186.23 C1594.8,190.37 1591.78,196.68 1589.66,200.27 C1587.54,203.85 1582.94,209.73 1579.44,213.35 C1575.94,216.96 1569.52,222.24 1565.16,225.09 C1559.67,228.68 1553.49,231.01 1544.99,232.68 C1538.26,234.01 1526.2,235.77 1518.21,236.6 C1510.21,237.43 1492.3,238.07 1478.41,238.04 ZM1495.24,209.04 C1499.87,209.05 1510,208.1 1517.76,206.94 C1525.51,205.77 1535.15,203.23 1539.19,201.28 C1543.22,199.33 1549.74,194.45 1553.66,190.43 C1558.29,185.69 1561.72,180.35 1563.42,175.22 C1565.22,169.8 1565.8,164.59 1565.26,158.62 C1564.82,153.84 1562.98,147.01 1561.17,143.46 C1559.36,139.91 1555.07,134.28 1551.64,130.95 C1548.22,127.63 1541.18,122.82 1536.02,120.28 C1530.85,117.74 1522.49,114.98 1517.44,114.16 C1512.39,113.33 1502.2,112.65 1494.8,112.65 L1481.34,112.64 L1481.79,159.38 C1482.16,198.93 1482.59,206.35 1484.53,207.58 C1485.79,208.38 1490.61,209.03 1495.24,209.04 Z" style="fill:#008CFF;" />
	<path d="M1626.47,238.53 C1620.05,238.91 1613.53,238.85 1611.97,238.39 C1609.9,237.78 1609.42,236.63 1610.17,234.13 C1610.74,232.24 1619.56,211.85 1629.78,188.81 C1639.99,165.76 1654.98,132.44 1663.08,114.75 L1677.82,82.6 L1697.69,83.7 C1708.62,84.3 1718.04,85.26 1718.63,85.82 C1719.22,86.38 1733.33,116.71 1749.98,153.23 C1766.64,189.75 1781.44,223.08 1782.86,227.3 C1785.36,234.69 1785.34,235.06 1782.34,237.32 C1779.99,239.09 1776.04,239.51 1766.29,239.03 C1758.5,238.65 1752.32,237.53 1750.74,236.21 C1749.29,235.02 1744.94,227.72 1741.07,220.01 L1734.02,205.98 L1698.76,206.48 C1673.29,206.85 1662.83,207.54 1661.09,208.99 C1659.77,210.08 1656.44,215.55 1653.69,221.14 C1650.37,227.88 1646.91,232.39 1643.41,234.56 C1639.76,236.81 1634.53,238.04 1626.47,238.53 ZM1701.36,175.97 C1712.34,176.08 1719.93,175.54 1719.93,174.64 C1719.93,173.8 1718.46,169.35 1716.66,164.75 C1714.86,160.16 1710.17,148.75 1706.24,139.4 C1702.3,130.05 1698.47,122.41 1697.72,122.41 C1696.98,122.41 1693.85,127.71 1690.77,134.19 C1687.7,140.67 1683.4,151.29 1681.21,157.79 C1679.03,164.28 1677.25,170.67 1677.25,171.97 C1677.25,173.28 1678.49,174.67 1680.01,175.07 C1681.54,175.47 1691.14,175.87 1701.36,175.97 Z" style="fill:#008CFF;" />
	<path d="M1844.07,239.04 C1829.49,239.37 1815.66,239.3 1813.32,238.88 C1810.59,238.4 1808.57,236.79 1807.65,234.35 C1806.81,232.16 1806.21,199.79 1806.21,157.23 L1806.21,83.89 L1849.75,83.92 C1873.69,83.93 1897.98,84.63 1903.72,85.46 C1910.24,86.4 1917.61,88.8 1923.38,91.86 C1928.46,94.55 1936.37,100.52 1940.96,105.11 C1945.56,109.7 1951.46,117.54 1954.09,122.52 C1956.72,127.51 1959.91,135.14 1961.19,139.49 C1962.46,143.83 1963.95,152.01 1964.5,157.66 C1965.19,164.84 1964.77,171.04 1963.08,178.25 C1961.75,183.92 1958.85,192.29 1956.62,196.83 C1954.4,201.38 1950.23,207.84 1947.37,211.18 C1944.51,214.52 1938.32,219.86 1933.62,223.04 C1928.93,226.21 1922.7,229.54 1919.78,230.42 C1916.87,231.31 1910.05,232.76 1904.64,233.66 C1899.23,234.55 1889.35,236 1882.68,236.87 C1876.02,237.74 1858.64,238.72 1844.07,239.04 ZM1857.5,209.4 C1861.14,209.5 1871.36,208.5 1880.21,207.19 C1889.06,205.87 1899.57,203.39 1903.56,201.67 C1907.56,199.95 1913.18,195.8 1916.05,192.44 C1918.92,189.09 1922.7,182.54 1924.45,177.89 C1926.9,171.36 1927.5,166.85 1927.11,157.98 C1926.7,148.87 1925.66,144.69 1922.04,137.6 C1919.21,132.07 1915.02,126.81 1910.99,123.74 C1907.43,121.02 1900.96,117.69 1896.62,116.34 C1891.63,114.79 1880.56,113.59 1866.4,113.07 L1844.07,112.25 L1844.07,148.57 C1844.07,168.54 1844.51,190.07 1845.04,196.41 C1845.78,205.15 1846.6,208.08 1848.45,208.57 C1849.79,208.93 1853.86,209.3 1857.5,209.4 Z" style="fill:#008CFF;" />
</svg>