<?xml version="1.0" encoding="UTF-8"?>
<!-- Created with Grafika (https://www.grafika.cc/) -->
<svg xmlns="http://www.w3.org/2000/svg" xmlns:svg="http://www.w3.org/2000/svg" xmlns:xlink="http://www.w3.org/1999/xlink" width="2457.88" height="821.91" viewBox="0 0 2457.88 821.91" preserveAspectRatio="xMidYMid meet">
	<defs>
		<mask id="mask_1" mask-type="alpha">
			<path d="M-26.29,-269.76 L2473.71,-269.76 L2473.71,1093.24 L-26.29,1093.24 L-26.29,-269.76 Z" fill-rule="evenodd" style="fill:white;" />
		</mask>
	</defs>
	<g id="Grupo2">
		<g mask="url(#mask_1)">
			<path d="M331.38,817.67 C298.27,805.67 239.57,773.57 191,740.91 C68.3,658.41 0.57,545.53 0.57,423.57 C0.57,396.65 1.73,395.96 17.96,413.27 C32.01,428.25 59.92,453.07 73.66,462.82 C97.85,479.97 151.56,506.84 187.34,519.68 C312.85,564.74 431.41,564.9 481.02,520.09 C497.21,505.46 507.16,488.52 496.07,494.46 C442.13,523.33 370.31,518 328.07,481.99 C305.37,462.65 302.03,460.91 284.15,459.09 C167.27,447.19 43.3,369.38 8.02,285.79 C-1.23,263.86 -3.05,141.18 5.58,121.12 C12.72,104.51 26.15,92.77 43.8,87.72 C61.88,82.54 225.7,34.08 280.11,17.81 C356.76,-5.11 357.8,-5.14 419.27,13.3 C440.75,19.75 479.76,31.32 505.94,39.03 C532.12,46.73 576.62,59.93 604.82,68.36 C633.02,76.8 662.33,85.48 669.96,87.66 C701.5,96.65 715.94,122.03 711.16,160.1 C702.37,230.07 613.09,297.67 488.85,328.41 C484.15,329.57 474.81,331.88 468.1,333.55 C448.25,338.48 442.01,341.84 414.97,362.13 C357.13,405.54 304.89,412.19 227.02,386.05 C167.27,365.99 159.36,356.03 159.29,300.82 C159.23,251.9 176.19,240.47 221.65,258.79 C253.74,271.73 273.16,277.12 287.69,277.12 C304.27,277.12 304.17,276.46 285.15,259.38 C263.22,239.69 258.2,220.35 271.94,208.43 C279.63,201.77 283.55,202.66 301,215.06 C355.9,254.06 408.38,262.78 488.77,246.27 C555.29,232.6 618.75,199.09 636.96,168 C647.1,150.69 651.26,152.38 466.88,99 C433.98,89.47 398.21,78.96 387.39,75.64 C365.03,68.78 352.83,68.13 337.31,72.97 C331.36,74.83 322.1,77.56 316.73,79.03 C311.36,80.51 284.99,88.27 258.14,96.27 C231.28,104.28 179.79,119.59 143.71,130.3 C107.63,141.01 76.93,150.95 75.48,152.4 C73.7,154.18 72.86,181.65 72.88,237.22 L72.91,319.41 L87.78,333.39 C117.9,361.7 174.47,393.93 217.85,407.49 C302.81,434.06 366.36,427.87 419.43,387.85 C438.5,373.47 455.63,384.41 449.7,407.16 C447.65,415.02 442.96,421.37 430.15,433.64 C420.88,442.51 414,450.48 414.86,451.34 C420.94,457.41 454.74,450.41 490.56,435.64 C540.37,415.12 557.21,426.1 557.21,479.13 C557.21,599.68 432.86,648.89 244.71,602.81 C199.6,591.76 174.86,582.66 130.12,560.66 C117.45,554.43 106.06,548.93 104.82,548.43 C101.35,547.04 114.72,569.57 127.09,585.96 C170.88,643.93 228.05,688.26 316.23,732.59 C359.83,754.51 356.04,754.39 395,735.14 C555.92,655.65 636.72,556.35 642.02,431.54 C643.58,394.77 644.44,395.99 623.58,405.55 C577.16,426.82 570.94,428.23 563.35,419.21 C560.19,415.45 553.67,410.26 548.86,407.67 C537.06,401.31 536.89,401.5 563.92,390.91 C623.2,367.69 658.06,346.93 690.87,315.32 C700.61,305.94 709.4,299.1 710.41,300.11 C714.86,304.57 711.26,466.8 706.16,491.86 C681.75,611.64 599.91,705.86 450.99,785.63 C385.27,820.83 359.3,827.79 331.38,817.67 ZM915.64,629.97 C825.59,605.17 820.81,483.55 908.77,455.22 C927.78,449.09 968.08,450.81 985.01,458.47 C1093.26,507.41 1030.85,661.71 915.64,629.97 ZM969.04,591.84 C1026.57,563.99 994.87,474.02 932.12,487.05 C866.68,500.63 876.01,596.64 942.79,596.89 C953.83,596.93 961.63,595.42 969.04,591.84 ZM1073.97,629.49 C1070.02,625.54 1072.18,455.93 1076.21,454.38 C1097.75,446.12 1107.27,451.42 1138.19,488.91 C1183.24,543.52 1195.47,557.75 1197.42,557.82 C1198.4,557.85 1199.5,534.53 1199.86,506 L1200.52,454.12 L1219.44,453.41 C1233.6,452.87 1238.39,453.49 1238.47,455.85 C1239.3,479.72 1238.08,627.17 1237.04,628.84 C1236.27,630.1 1228.7,631.12 1220.24,631.12 C1204.84,631.12 1204.84,631.12 1189.72,612.84 C1181.4,602.79 1173.25,593.17 1171.61,591.48 C1169.97,589.78 1159.73,577.41 1148.86,563.98 C1137.99,550.56 1126.21,536.91 1122.69,533.65 C1115.17,526.69 1115.03,527.84 1116.21,589.02 C1116.69,614 1116.02,624.85 1113.84,627.47 C1110.71,631.24 1077.41,632.93 1073.97,629.49 ZM1281.77,614.68 C1281.09,605.6 1281.2,565.75 1282.03,526.14 L1283.53,454.12 L1301.84,454.12 L1320.15,454.12 L1321.37,524.92 L1322.59,595.72 L1366.54,596.94 L1410.48,598.16 L1410.48,614.03 L1410.48,629.9 L1346.75,630.55 L1283.02,631.2 L1281.77,614.68 ZM1437.27,628.16 C1436.6,626.42 1436.34,586.54 1436.69,539.56 L1437.34,454.12 L1451.88,453.37 C1480.34,451.91 1477.77,442.81 1477.04,542.68 L1476.4,629.9 L1457.44,630.61 C1443.62,631.14 1438.15,630.47 1437.27,628.16 ZM1520.84,629.59 C1519.9,628.64 1519.12,588.5 1519.12,540.38 L1519.12,452.9 L1535.72,452.9 C1554.37,452.9 1553.43,452.22 1582.66,487.08 C1589.97,495.81 1597.07,504.16 1598.43,505.64 C1599.8,507.12 1609.61,519.48 1620.24,533.1 C1630.87,546.73 1640.46,557.88 1641.55,557.88 C1642.64,557.88 1643.83,534.53 1644.2,506 L1644.86,454.12 L1664.39,454.12 L1683.92,454.12 L1683.92,542.01 L1683.92,629.9 L1668.01,630.61 C1648.54,631.48 1652.51,634.87 1604.73,576.55 C1556.07,517.13 1560.67,519.04 1560.41,558.19 C1560.3,576.15 1560.02,599.63 1559.8,610.37 L1559.41,629.9 L1540.99,630.61 C1530.86,630.99 1521.79,630.53 1520.84,629.59 ZM1727.22,542.66 L1727.86,454.12 L1795,454.12 L1862.14,454.12 L1862.14,469.99 L1862.14,485.86 L1838.95,486.04 C1826.19,486.13 1805.04,486.41 1791.95,486.65 L1768.15,487.08 L1768.15,505.39 L1768.15,523.7 L1807.01,523.7 C1855.32,523.7 1853.6,523.07 1853.6,540.79 C1853.6,558.51 1855.32,557.88 1807.01,557.88 L1768.15,557.88 L1768.15,577.36 L1768.15,596.84 L1817.59,597.5 L1867.02,598.16 L1867.02,614.03 L1867.02,629.9 L1796.8,630.55 L1726.58,631.2 L1727.22,542.66 ZM887.45,363.85 C847.5,355.91 839.91,349.15 849.35,329.9 C856.66,315 857.47,314.48 865.52,319.66 C885.86,332.75 927.46,337.49 942.34,328.41 C959.02,318.25 948.79,300.65 923.42,295.86 C875.89,286.89 849.97,270.51 846.48,247.23 C842.99,223.91 855.49,203 879.47,192.06 C898.05,183.59 949.81,183.07 967.37,191.18 C985.5,199.56 985.26,199.14 979.52,212.54 C971.66,230.88 971.58,230.92 955.71,224.39 C924.26,211.46 888.14,218.62 889.71,237.48 C890.64,248.77 894.64,250.9 932.94,260.58 C981.9,272.95 993.76,284.69 991.33,318.36 C988.62,355.78 944.37,375.15 887.45,363.85 ZM1261.89,364.87 C1179.18,352.17 1156.67,244.86 1227.18,199.44 C1261.3,177.46 1322.22,180.63 1348.84,205.77 C1357.7,214.15 1357.44,215.55 1344.61,227.98 C1333.67,238.58 1333.67,238.58 1322.41,231.12 C1269.84,196.3 1208.06,243.39 1232.29,299.79 C1243.38,325.6 1277.11,338.57 1307.25,328.62 C1316.32,325.62 1316.32,325.62 1317.01,300.76 L1317.71,275.9 L1336.63,275.18 L1355.55,274.47 L1355.55,309.87 C1355.55,345.27 1355.55,345.27 1345.17,351.29 C1324.3,363.38 1289.34,369.09 1261.89,364.87 ZM1449.43,364.05 C1402.39,354.76 1391.77,332.75 1392.74,246.57 L1393.39,188.01 L1412.92,188.01 L1432.45,188.01 L1433.67,248.26 C1435.18,322.37 1439.95,332.19 1474.27,331.69 C1507.49,331.21 1512.65,320.07 1514.24,245.38 L1515.46,188.01 L1533.77,188.01 L1552.08,188.01 L1552.84,244.16 C1553.31,278.83 1552.57,305.09 1550.91,312.79 C1542.2,353.21 1500.69,374.18 1449.43,364.05 ZM1022.1,361.71 C1021.5,360.15 1021.3,320.43 1021.65,273.44 L1022.3,188.01 L1090.66,188.01 L1159.02,188.01 L1159.02,202.66 L1159.02,217.3 L1111.41,218.52 L1063.8,219.74 L1063.8,238.06 L1063.8,256.37 L1100.42,256.96 C1150.44,257.77 1148.43,257.03 1147.54,274.14 L1146.81,288.1 L1105.31,289.32 L1063.8,290.55 L1063.09,310.64 L1062.39,330.73 L1111.92,331.39 L1161.46,332.05 L1162.18,347.31 C1162.72,358.57 1162.08,362.56 1159.74,362.55 C1158,362.53 1126.56,362.98 1089.88,363.53 C1040.71,364.28 1022.9,363.8 1022.1,361.71 ZM1597.83,363.36 C1592.3,362.22 1592.3,362.22 1592.95,275.11 L1593.59,188.01 L1641.19,187.3 C1692.77,186.53 1702.93,188.01 1721.76,199.01 C1757.66,220 1759.42,274.38 1725.03,300.51 L1714.87,308.23 L1724,321.69 C1729.03,329.09 1737.34,340.87 1742.47,347.87 C1753.07,362.31 1751.96,364.93 1735.19,364.94 C1710.94,364.97 1707.76,363.3 1694.47,343.61 C1673.92,313.16 1674.7,313.74 1654.18,313.74 L1636.31,313.74 L1636.31,336.79 C1636.31,349.47 1635.49,360.33 1634.48,360.92 C1631.42,362.74 1603.72,364.59 1597.83,363.36 ZM1692.31,275.98 C1702.69,270.61 1707.11,262.92 1707.11,250.26 C1707.11,228.27 1695.32,220.97 1659.81,220.97 C1633.74,220.97 1631.33,225.01 1635.09,262.43 C1636.78,279.32 1636.78,279.32 1649.36,280.05 C1670.27,281.26 1684.74,279.89 1692.31,275.98 ZM1869.52,361.68 C1866.2,359.25 1865.81,348.37 1866.38,273.46 L1867.02,188.01 L1915.85,187.28 C1964.91,186.55 1970.36,187.16 1994.93,196.25 C2068.44,223.44 2060.2,336.27 1982.99,359.6 C1970.38,363.41 1874.29,365.18 1869.52,361.68 ZM1975.45,323.47 C2016.18,300.53 2012.23,240.65 1968.96,225.09 C1959.87,221.82 1951.14,220.95 1932.75,221.48 L1908.53,222.19 L1907.87,273.39 C1907.5,301.56 1907.79,326.12 1908.5,327.98 C1910.94,334.34 1962.29,330.88 1975.45,323.47 ZM2055.12,362.74 C2053.65,360.36 2056.5,353.06 2070.94,322.28 C2074.72,314.23 2083.81,293.9 2091.16,277.12 C2098.5,260.33 2107.78,239.46 2111.79,230.73 C2115.79,222 2121.92,208.5 2125.4,200.73 C2131.73,186.6 2131.73,186.6 2154.18,187.3 L2176.62,188.01 L2189.23,216.08 C2196.16,231.52 2205.22,251.3 2209.36,260.03 C2213.49,268.76 2220.17,283.59 2224.18,292.99 C2228.2,302.39 2236.55,320.74 2242.74,333.76 C2257.64,365.13 2257.66,365.04 2233.65,364.98 C2212.79,364.92 2211.28,363.91 2202.62,344.03 L2194.73,325.95 L2153.51,325.95 L2112.29,325.95 L2103.18,344.87 C2094.07,363.79 2094.07,363.79 2075.36,364.5 C2064.6,364.9 2056,364.16 2055.12,362.74 ZM2180.74,293.21 C2180.74,292.66 2175.25,278.72 2168.54,262.23 C2161.82,245.74 2156.33,231.9 2156.33,231.49 C2156.33,231.07 2155.34,230.73 2154.12,230.73 C2152.01,230.73 2127.03,287.16 2127.03,291.92 C2127.03,293.2 2138.84,294.21 2153.89,294.21 C2168.66,294.21 2180.74,293.76 2180.74,293.21 ZM2277.09,361.99 C2276.43,360.28 2276.18,320.43 2276.54,273.44 L2277.18,188.01 L2324.79,187.27 C2379.64,186.42 2394.32,188.6 2414.64,200.61 C2483.87,241.53 2463.41,353.09 2385.17,361.32 C2354.87,364.51 2278.24,364.98 2277.09,361.99 ZM2382.12,325.75 C2423.49,310.27 2426.89,248.55 2387.51,227.71 C2378.61,223 2373.47,222.29 2347.98,222.24 L2318.68,222.19 L2318.02,273.39 C2317.66,301.56 2317.9,326 2318.56,327.71 C2320.67,333.22 2365.89,331.82 2382.12,325.75 ZM1784.52,360.74 C1782.15,356.41 1783,195.85 1785.42,191.33 C1787.64,187.18 1790.2,186.67 1805.52,187.29 L1823.08,188.01 L1823.72,275.29 L1824.36,362.57 L1804.94,362.57 C1794.26,362.57 1785.07,361.74 1784.52,360.74 Z" style="fill:#FFFFFF;" />
		</g>
	</g>
	<path d="M916.5,367.04 C908.63,366.98 900.85,366.71 899.21,366.44 C897.57,366.18 891.67,365.12 886.1,364.08 C880.52,363.04 870.88,360.58 864.68,358.62 C856.36,355.99 852.36,354.01 849.47,351.13 C846.3,347.96 845.56,346.27 845.56,342.25 C845.56,339.12 847.03,334.12 849.55,328.72 C851.74,324.01 854.69,319.13 856.1,317.88 C858.65,315.63 858.76,315.66 869.7,321.15 C876.71,324.67 884.86,327.62 892.06,329.24 C900,331.03 907.84,331.83 918.29,331.93 C931.97,332.06 933.68,331.83 939.09,329.09 C942.34,327.45 946.04,324.67 947.32,322.9 C948.61,321.13 949.61,318.01 949.55,315.96 C949.49,313.91 948.07,310.43 946.4,308.24 C944.72,306.04 940.53,302.87 937.08,301.19 C933.63,299.51 924.64,296.75 917.1,295.06 C909.56,293.37 898.59,290.39 892.73,288.43 C886.87,286.47 878.3,282.89 873.69,280.47 C869.08,278.04 862.3,273.1 858.64,269.49 C854.97,265.88 850.7,260.27 849.15,257.04 C847.21,253 846.17,248.32 845.8,242.04 C845.44,235.76 845.88,230.83 847.21,226.26 C848.27,222.6 851.42,216.21 854.21,212.05 C857.67,206.88 861.92,202.61 867.69,198.49 C872.32,195.19 878.9,191.58 882.31,190.48 C885.73,189.38 894.54,187.59 901.91,186.5 C911.97,185.01 919.47,184.7 932,185.24 C941.18,185.64 952.4,186.77 956.93,187.76 C961.47,188.74 968.53,191.12 972.63,193.04 C976.74,194.96 980.95,197.83 981.99,199.43 C983.67,201.99 983.7,202.87 982.2,206.99 C981.28,209.55 979.33,214.33 977.87,217.61 C976.42,220.89 974.13,224.78 972.78,226.26 C971.44,227.73 969.52,228.94 968.53,228.94 C967.54,228.94 960.53,226.8 952.94,224.2 C943.19,220.84 936.19,219.23 929.02,218.68 C922.56,218.19 916.29,218.45 911.73,219.39 C907.8,220.2 902.7,221.83 900.4,223 C898.11,224.17 894.89,226.57 893.25,228.32 C890.93,230.8 890.3,232.71 890.39,236.85 C890.46,240.17 891.4,243.41 892.88,245.4 C894.19,247.17 898.16,249.78 901.71,251.2 C905.25,252.62 917.54,256.2 929.02,259.15 C940.5,262.11 954.15,266.17 959.36,268.18 C964.57,270.19 971.63,273.69 975.05,275.96 C978.47,278.23 982.65,281.9 984.33,284.11 C986.02,286.32 988.3,290.5 989.4,293.41 C990.83,297.18 991.42,302.44 991.43,311.8 C991.45,322.59 990.98,326.13 988.79,331.72 C987.32,335.46 983.67,341.25 980.67,344.58 C977.67,347.92 972.87,352.26 970.01,354.23 C967.15,356.2 961.19,359.18 956.75,360.87 C952.32,362.55 944.67,364.65 939.75,365.54 C934.83,366.43 924.37,367.11 916.5,367.04 Z" style="fill:#008CFF;" />
	<path d="M1088.79,364.04 C1067.48,364.25 1044.14,364.13 1036.92,363.75 C1029.71,363.38 1023.14,362.64 1022.32,362.11 L1020.83,361.14 L1020.83,310.84 C1020.83,283.17 1021.19,244.04 1021.62,223.87 L1022.41,187.21 L1090.77,187.21 L1159.14,187.21 L1159.14,202.57 L1159.14,217.92 L1119.49,218.69 C1097.69,219.11 1076.23,219.77 1071.8,220.15 L1063.75,220.83 L1063.75,238.44 L1063.75,256.04 L1101.01,256.62 L1138.27,257.2 L1142.63,259.06 C1145.07,260.1 1147.35,262.08 1147.82,263.56 C1148.29,265.02 1148.29,271.17 1147.84,277.23 L1147.01,288.24 L1130.12,288.98 C1120.83,289.39 1102.16,290.07 1088.63,290.49 L1064.03,291.27 L1063.49,310.48 C1063.19,321.04 1063,329.78 1063.05,329.88 C1063.11,329.99 1085.24,330.47 1112.24,330.95 L1161.33,331.82 L1162.01,334.33 C1162.38,335.71 1162.68,341.94 1162.68,348.17 C1162.68,354.4 1162.26,360.15 1161.75,360.96 L1160.82,362.42 L1144.18,363.03 C1135.03,363.37 1110.1,363.82 1088.79,364.04 Z" style="fill:#008CFF;" />
	<path d="M1285.79,365.92 C1275.39,366.2 1263.9,365.88 1260.26,365.21 C1256.61,364.55 1250.31,362.93 1246.25,361.61 C1242.2,360.3 1235.1,357.25 1230.48,354.84 C1225.62,352.31 1217.63,346.05 1211.5,339.96 L1200.93,329.46 L1195.71,319.38 C1192.84,313.84 1189.25,304.44 1187.73,298.5 L1184.97,287.71 L1184.97,274.92 C1184.97,267.89 1185.93,258.38 1187.09,253.79 C1188.26,249.2 1191.51,240.72 1194.31,234.94 L1199.41,224.44 L1211.44,212.41 L1223.48,200.37 L1233.98,195.27 C1239.76,192.47 1248.26,189.18 1252.89,187.97 C1257.51,186.75 1268.85,185.41 1278.09,185 L1294.89,184.25 L1308.89,187.15 L1322.9,190.06 L1333.16,195.13 C1338.81,197.92 1346.21,202.87 1349.62,206.13 C1353.02,209.39 1355.8,213.09 1355.8,214.35 C1355.8,215.61 1351.94,220.77 1347.22,225.81 C1342.51,230.85 1337.1,235.37 1335.22,235.84 L1331.79,236.7 L1317.54,229.46 L1303.29,222.22 L1294.44,220.61 L1285.58,219.01 L1275.68,220.71 L1265.78,222.4 L1256,227.54 L1246.23,232.68 L1240.7,239.67 C1237.67,243.51 1234.03,248.92 1232.61,251.69 C1231.2,254.45 1229.28,260.59 1228.35,265.33 L1226.66,273.94 L1228.31,283.42 C1229.22,288.64 1231.6,296.36 1233.6,300.59 C1235.6,304.82 1240,311.05 1243.38,314.43 C1246.76,317.81 1253.43,322.4 1258.21,324.64 C1262.99,326.87 1270.29,329.35 1274.44,330.13 C1278.58,330.92 1284.59,331.56 1287.79,331.56 C1290.99,331.56 1297.36,330.59 1301.95,329.4 C1306.54,328.21 1311.54,326.01 1313.05,324.5 L1315.81,321.77 L1316.36,298.85 L1316.92,275.94 L1327.47,275.04 C1333.27,274.55 1342.02,274.15 1346.91,274.15 L1355.8,274.15 L1355.8,306.71 L1355.8,339.26 L1353.35,344.04 L1350.9,348.82 L1341.51,353.56 C1336.34,356.17 1325.94,359.9 1318.4,361.86 L1304.69,365.42 L1285.79,365.92 Z" style="fill:#008CFF;" />
	<path d="M1472.72,366.42 C1464.25,366.35 1453.23,365.47 1448.22,364.44 C1443.21,363.42 1436.54,361.65 1433.38,360.51 C1430.23,359.37 1425.14,357.16 1422.08,355.6 C1419.03,354.04 1414.13,350.12 1411.21,346.89 C1408.29,343.65 1404.11,337.15 1401.93,332.43 C1399.75,327.72 1396.85,318.19 1395.48,311.26 L1393.01,298.66 L1392.96,243.35 L1392.91,188.04 L1412.86,187.65 L1432.82,187.26 L1432.85,191.15 C1432.87,193.29 1433.48,216.15 1434.2,241.95 L1435.52,288.85 L1437.56,300.44 C1438.69,306.82 1440.95,314.81 1442.6,318.21 L1445.59,324.39 L1452.15,327.61 L1458.72,330.84 L1473.42,330.69 L1488.13,330.55 L1493.29,328.27 C1496.14,327.02 1499.99,323.94 1501.87,321.43 C1503.74,318.91 1506.28,313.71 1507.51,309.86 C1508.73,306.01 1510.4,297.5 1511.21,290.95 C1512.03,284.41 1513.02,262.35 1513.42,241.95 C1513.81,221.54 1514.48,200.9 1514.9,196.09 L1515.65,187.34 L1534.45,187.34 L1553.24,187.34 L1553.23,243.7 C1553.22,274.79 1552.58,304.14 1551.8,309.16 C1551.02,314.16 1548.18,322.76 1545.5,328.26 L1540.63,338.27 L1532.23,346.05 C1527.6,350.33 1519.83,355.73 1514.95,358.06 C1510.07,360.39 1502.04,363.25 1497.1,364.41 L1488.13,366.53 L1472.72,366.42 Z" style="fill:#008CFF;" />
	<path d="M1731.74,364.94 L1716.66,364.89 L1712.56,363.08 C1710.31,362.09 1706.83,359.62 1704.82,357.59 C1702.81,355.56 1695.84,346.42 1689.33,337.27 C1682.82,328.11 1675.86,319.4 1673.87,317.9 L1670.24,315.17 L1653.64,314.72 L1637.04,314.27 L1636.58,336.83 L1636.12,359.4 L1634.44,361.08 L1632.76,362.76 L1613.76,363.36 L1594.77,363.97 L1594.04,361.41 C1593.64,360 1592.89,355.56 1592.38,351.53 C1591.87,347.51 1591.91,309.03 1592.46,266.02 L1593.47,187.82 L1625.72,186.78 L1657.96,185.74 L1678.44,187.2 L1698.91,188.65 L1707.1,191.52 C1711.61,193.1 1719.33,197.14 1724.26,200.49 C1729.19,203.84 1735.09,209.21 1737.38,212.42 C1739.67,215.62 1742.64,220.39 1743.99,223.02 C1745.33,225.65 1747.25,230.87 1748.25,234.62 C1749.25,238.38 1750.08,245.16 1750.09,249.69 C1750.1,254.23 1749.19,261.46 1748.07,265.76 C1746.95,270.06 1744.45,276.69 1742.53,280.49 C1740.6,284.29 1735.84,290.6 1731.94,294.52 C1728.04,298.43 1722.74,303.19 1720.17,305.08 L1715.49,308.54 L1726.93,324.82 C1733.22,333.78 1741.01,344.99 1744.23,349.74 C1747.46,354.49 1750.1,359.13 1750.1,360.05 C1750.1,360.97 1749.37,362.45 1748.47,363.35 L1746.83,364.99 L1731.74,364.94 ZM1668.2,279.48 C1675.33,279.13 1683.38,278.26 1686.08,277.55 C1688.78,276.84 1693.08,274.88 1695.63,273.18 C1698.19,271.48 1701.66,267.36 1703.35,264.01 L1706.42,257.93 L1706.42,251.05 C1706.42,247.26 1705.82,242.06 1705.08,239.5 C1704.35,236.93 1702.1,233.11 1700.08,231.01 C1698.07,228.91 1693.3,226.1 1689.48,224.76 L1682.53,222.34 L1662.43,222.34 L1642.32,222.34 L1638.54,226.12 L1634.75,229.91 L1634.81,243.19 C1634.84,250.49 1635.34,260.48 1635.91,265.38 C1636.48,270.29 1637.5,275.19 1638.18,276.28 C1638.89,277.43 1642.73,278.65 1647.32,279.19 C1651.67,279.7 1661.06,279.83 1668.2,279.48 Z" style="fill:#008CFF;" />
	<path d="M1810.93,363.4 C1802.95,363.26 1793.7,362.9 1790.37,362.59 L1784.32,362.04 L1783.43,356.62 C1782.93,353.64 1782.53,324.81 1782.52,292.57 C1782.51,260.32 1782.94,224.43 1783.48,212.81 L1784.44,191.68 L1787.35,188.78 L1790.25,185.88 L1806.38,186.8 C1815.26,187.31 1822.69,187.9 1822.9,188.11 C1823.11,188.32 1823.76,227.91 1824.35,276.08 L1825.43,363.66 L1810.93,363.4 Z" style="fill:#008CFF;" />
	<path d="M1922.3,363.2 L1872.28,364.03 L1869.16,360.91 L1866.05,357.79 L1866.05,273.01 L1866.05,188.23 L1891.33,187.27 C1905.24,186.74 1925.31,186.31 1935.93,186.3 C1946.55,186.3 1960.34,187.01 1966.57,187.87 C1972.8,188.74 1983.39,191.44 1990.1,193.87 C1996.81,196.29 2006.13,200.75 2010.8,203.77 C2015.48,206.8 2022.35,212.75 2026.07,217.01 C2029.8,221.26 2034.84,228.84 2037.28,233.84 C2039.71,238.84 2042.75,247.97 2044.02,254.13 C2045.29,260.29 2046.32,269.15 2046.31,273.82 C2046.3,278.49 2045.32,286.92 2044.15,292.57 C2042.97,298.21 2039.2,308.42 2035.76,315.25 L2029.51,327.67 L2018.98,338.2 L2008.45,348.73 L1997.71,354 C1991.8,356.9 1983.67,359.97 1979.64,360.82 C1975.61,361.67 1949.81,362.74 1922.3,363.2 ZM1931.27,330.51 C1937.72,330.11 1947.62,329.14 1953.26,328.36 C1958.9,327.58 1966.66,325.91 1970.5,324.65 L1977.48,322.37 L1985.46,315.08 L1993.44,307.78 L1997.31,299.6 C1999.44,295.1 2001.7,287.72 2002.34,283.19 C2002.98,278.67 2002.95,271.48 2002.28,267.21 C2001.6,262.95 1999.47,256.03 1997.54,251.83 C1995.61,247.63 1991.23,241.42 1987.81,238.01 C1984.39,234.61 1978.12,230.19 1973.88,228.19 C1969.64,226.18 1961.62,223.8 1956.05,222.91 L1945.93,221.28 L1927.24,222.3 L1908.55,223.32 L1908.55,275.87 L1908.55,328.42 L1912.58,329.31 C1914.8,329.8 1917.28,330.44 1918.08,330.73 C1918.89,331.01 1924.82,330.92 1931.27,330.51 Z" style="fill:#008CFF;" />
	<path d="M2237.04,365.33 C2230.4,365.49 2222.42,365.1 2219.32,364.46 L2213.68,363.31 L2210.47,359.77 C2208.71,357.82 2204.48,349.63 2201.07,341.58 L2194.87,326.93 L2153.5,327.01 L2112.13,327.08 L2103.98,343.6 L2095.83,360.11 L2091.44,362.3 L2087.05,364.5 L2072.87,364.5 C2065.06,364.5 2057.58,363.91 2056.24,363.2 L2053.81,361.89 L2054.62,358.49 C2055.07,356.63 2058.1,349.17 2061.37,341.93 C2064.63,334.69 2071.66,319.18 2076.99,307.46 C2082.32,295.73 2089.11,280.5 2092.07,273.6 C2095.04,266.71 2104.33,245.83 2112.73,227.22 C2121.13,208.6 2129.28,192.05 2130.84,190.45 C2132.52,188.73 2135.79,187.25 2138.82,186.85 C2141.64,186.47 2151.46,186.57 2160.64,187.08 L2177.32,188 L2190.43,217.01 C2197.63,232.97 2211.95,264.64 2222.23,287.4 C2232.52,310.15 2243.69,334.83 2247.05,342.23 C2250.42,349.63 2253.17,357.04 2253.17,358.69 C2253.17,360.34 2252.26,362.44 2251.15,363.37 L2249.12,365.05 L2237.04,365.33 ZM2160.4,293.96 C2164.88,294.02 2171.16,293.7 2174.35,293.24 L2180.15,292.41 L2168.12,262.32 C2161.5,245.77 2155.91,231.98 2155.7,231.68 C2155.49,231.38 2154.48,231.97 2153.44,233 C2152.41,234.04 2147.99,242.75 2143.63,252.36 C2139.27,261.98 2133.81,274.49 2131.51,280.16 C2129.21,285.83 2127.76,290.91 2128.29,291.44 C2128.82,291.98 2134.42,292.73 2140.75,293.13 C2147.07,293.53 2155.91,293.9 2160.4,293.96 Z" style="fill:#008CFF;" />
	<path d="M2316.49,364.26 C2302.69,364.16 2288.03,363.75 2283.89,363.35 L2276.37,362.62 L2276.53,275.73 C2276.63,227.95 2276.94,188.62 2277.22,188.33 C2277.51,188.04 2296.05,187.43 2318.43,186.97 L2359.11,186.13 L2372.9,187.6 C2380.49,188.41 2389.77,189.94 2393.52,191.01 C2397.28,192.08 2403.77,194.66 2407.94,196.76 C2412.12,198.85 2419,203.01 2423.23,206.02 C2427.47,209.02 2433.8,215.08 2437.29,219.47 C2440.79,223.87 2445.11,230.37 2446.9,233.93 C2448.69,237.49 2451.24,243.58 2452.58,247.46 C2453.92,251.35 2455.66,259.57 2456.45,265.73 L2457.88,276.93 L2456.42,287.38 C2455.62,293.13 2453.8,301.41 2452.38,305.78 C2450.96,310.15 2447.79,317.39 2445.32,321.87 C2442.68,326.68 2436.87,333.96 2431.18,339.61 L2421.52,349.2 L2412.22,353.67 C2407.11,356.13 2399.1,359.03 2394.42,360.11 C2389.74,361.2 2375.93,362.61 2363.74,363.26 C2351.54,363.91 2330.28,364.36 2316.49,364.26 ZM2344.69,329.96 C2354.69,329.64 2366.98,328.56 2371.99,327.56 C2377.01,326.56 2384.53,323.93 2388.7,321.7 C2392.87,319.48 2398.29,315.36 2400.74,312.56 C2403.18,309.75 2406.84,303.97 2408.86,299.72 C2410.89,295.46 2413.16,288.27 2413.91,283.73 L2415.27,275.49 L2413.88,267.08 C2413.12,262.46 2410.8,255.26 2408.74,251.1 C2406.68,246.93 2402.85,241.31 2400.23,238.61 C2397.61,235.92 2392.65,231.9 2389.2,229.69 C2385.75,227.48 2379.94,225.03 2376.29,224.25 C2372.61,223.46 2358.58,222.83 2344.82,222.83 L2320,222.83 L2319.18,236.19 C2318.73,243.54 2318.37,266.88 2318.37,288.06 L2318.37,326.58 L2319.93,327.85 C2320.8,328.55 2322.63,329.44 2324.01,329.83 C2325.39,330.22 2334.7,330.28 2344.69,329.96 Z" style="fill:#008CFF;" />
</svg>