<svg width="880" height="260" viewBox="0 0 880 260" fill="none" xmlns="http://www.w3.org/2000/svg">
  <defs>
    <radialGradient id="glow" cx="440" cy="90" r="280" gradientUnits="userSpaceOnUse">
      <stop offset="0%"   stop-color="#10b981" stop-opacity="0.18"/>
      <stop offset="100%" stop-color="#10b981" stop-opacity="0"/>
    </radialGradient>
  </defs>

  <!-- Background -->
  <rect width="880" height="260" fill="#0d1117"/>
  <rect width="880" height="260" fill="url(#glow)"/>

  <!-- Top accent stripe -->
  <rect width="880" height="4" fill="#10b981"/>

  <!-- Corner marks -->
  <path d="M 30 50 L 30 30 L 50 30"    stroke="#10b981" stroke-width="1.5" fill="none" stroke-opacity="0.5"/>
  <path d="M 830 30 L 850 30 L 850 50"  stroke="#10b981" stroke-width="1.5" fill="none" stroke-opacity="0.5"/>
  <path d="M 30 210 L 30 230 L 50 230"  stroke="#10b981" stroke-width="1.5" fill="none" stroke-opacity="0.5"/>
  <path d="M 830 230 L 850 230 L 850 210" stroke="#10b981" stroke-width="1.5" fill="none" stroke-opacity="0.5"/>

  <!-- Lucide Rocket — scale(5), visual centre at (440, 90) -->
  <!-- Icon x≈2.5–22, y≈2–21 in 24×24; at scale 5: translate(379, 35) -->
  <g transform="translate(379, 35) scale(5)"
     stroke="#10b981" stroke-width="1.6" stroke-linecap="round" stroke-linejoin="round" fill="none">
    <path d="M12 15v5s3.03-.55 4-2c1.08-1.62 0-5 0-5"/>
    <path d="M4.5 16.5c-1.5 1.26-2 5-2 5s3.74-.5 5-2c.71-.84.7-2.13-.09-2.91a2.18 2.18 0 0 0-2.91-.09"/>
    <path d="M9 12a22 22 0 0 1 2-3.95A12.88 12.88 0 0 1 22 2c0 2.72-.78 7.5-6 11a22.4 22.4 0 0 1-4 2z"/>
    <path d="M9 12H4s.55-3.03 2-4c1.62-1.08 5 .05 5 .05"/>
  </g>

  <!-- Wordmark — baseline y=218, icon bottom ≈ y=140, gap ≈ 33 px -->
  <text x="440" y="218"
    text-anchor="middle"
    font-family="system-ui, -apple-system, 'Segoe UI', Helvetica, Arial, sans-serif"
    font-weight="800" font-size="62" letter-spacing="-1.5"
    fill="white">Astro <tspan fill="#10b981">Rocket</tspan></text>
</svg>
